<?xml version="1.0" encoding="utf-8"?>
<!-- Generator: Adobe Illustrator 25.3.1, SVG Export Plug-In . SVG Version: 6.00 Build 0)  -->
<svg version="1.1" id="Layer_1" xmlns="http://www.w3.org/2000/svg" xmlns:xlink="http://www.w3.org/1999/xlink" x="0px" y="0px"
	 viewBox="0 0 125.09 37.39" style="enable-background:new 0 0 125.09 37.39;" xml:space="preserve">
<style type="text/css">
	.st0{fill:#FFFFFF;}
	.st1{fill:#3D4571;}
	.st2{fill:#FCEA25;}
</style>
<path class="st0" d="M94.51,32.25c-0.01,0.03-0.01,0.07-0.01,0.13c0,0.1,0.02,0.15,0.03,0.17c0.05-0.01,0.07-0.07,0.07-0.17
	c0-0.06-0.01-0.11-0.02-0.13L94.51,32.25z M73.9,32.25c-0.01,0.03-0.01,0.07-0.01,0.13c0,0.1,0.02,0.15,0.03,0.16
	c0.05-0.01,0.07-0.07,0.07-0.16c0-0.06-0.01-0.11-0.02-0.13L73.9,32.25z M114.7,32.25c-0.01,0.03-0.01,0.07-0.01,0.13
	c0,0.1,0.02,0.15,0.03,0.16c0.05-0.01,0.07-0.07,0.07-0.16c0-0.06-0.01-0.11-0.02-0.13L114.7,32.25z M91.03,32.25
	c-0.01,0.03-0.01,0.07-0.01,0.13c0,0.1,0.02,0.15,0.03,0.16c0.05-0.01,0.07-0.07,0.07-0.16c0-0.06-0.01-0.11-0.02-0.13L91.03,32.25z
	"/>
<path class="st0" d="M38.15,36.01v-7.26h86.93v7.26H38.15z M93.96,31.56l-0.14,0.5c-0.03,0.1-0.04,0.21-0.04,0.33
	c0,0.15,0.02,0.36,0.13,0.54l0.28,0.46l0.52-0.14c0.29-0.08,0.6-0.35,0.6-0.86c0-0.12-0.01-0.23-0.04-0.33l-0.16-0.55L93.96,31.56z
	 M90.48,31.56l-0.14,0.5c-0.03,0.1-0.04,0.21-0.04,0.33c0,0.15,0.02,0.36,0.13,0.54l0.28,0.46l0.52-0.14
	c0.29-0.08,0.61-0.34,0.61-0.86c0-0.12-0.01-0.23-0.04-0.33l-0.16-0.54L90.48,31.56z M73.35,31.56l-0.14,0.5
	c-0.03,0.1-0.04,0.21-0.04,0.33c0,0.15,0.02,0.36,0.13,0.54l0.28,0.45l0.51-0.13c0.29-0.08,0.61-0.34,0.61-0.86
	c0-0.12-0.01-0.23-0.04-0.33l-0.15-0.55L73.35,31.56z M114.15,31.56l-0.14,0.5c-0.03,0.1-0.04,0.21-0.04,0.33
	c0,0.15,0.02,0.36,0.13,0.54l0.28,0.45l0.51-0.13c0.3-0.07,0.62-0.34,0.62-0.86c0-0.12-0.01-0.23-0.04-0.33l-0.16-0.54L114.15,31.56
	z"/>
<path class="st1" d="M71.16,32.37l-0.01-0.19c-0.06-0.42-0.35-0.62-0.82-0.62h-0.37v1.67h0.37l0.21-0.01
	C70.98,33.14,71.16,32.9,71.16,32.37"/>
<path class="st1" d="M88.3,32.37l-0.01-0.19c-0.06-0.42-0.35-0.62-0.82-0.62h-0.37v1.67h0.37l0.21-0.01
	C88.11,33.14,88.3,32.9,88.3,32.37"/>
<path class="st1" d="M98.47,31.83l-0.01-0.08c-0.04-0.17-0.2-0.25-0.39-0.25h-0.63v0.68h0.66l0.16-0.02
	C98.4,32.12,98.47,32,98.47,31.83"/>
<path class="st0" d="M38.87,35.29h85.49v-5.82H38.87V35.29z M120.14,30.88h2.41v0.63h-1.62v0.53h1.48v0.61h-1.48v0.57h1.66v0.68
	h-2.45V30.88z M116.86,30.88h1.54c0.53,0,1.06,0.24,1.06,0.85c0,0.33-0.16,0.63-0.47,0.76v0.01c0.32,0.08,0.41,0.43,0.44,0.72
	c0.01,0.13,0.02,0.57,0.13,0.68h-0.78c-0.07-0.1-0.08-0.4-0.09-0.48c-0.02-0.3-0.07-0.62-0.44-0.62h-0.6v1.1h-0.79V30.88z
	 M115.84,33.5c-0.25,0.28-0.63,0.46-1.1,0.46c-0.95,0-1.49-0.7-1.49-1.57c0-0.82,0.47-1.49,1.32-1.57l0.17-0.01
	c0.95,0,1.49,0.7,1.49,1.57C116.23,32.82,116.09,33.22,115.84,33.5 M109.25,30.88h1.16l0.52,2.01h0.01l0.52-2.01h1.16v3.02h-0.74
	V31.6h-0.01l-0.63,2.29h-0.6L110,31.6h-0.01v2.29h-0.74V30.88z M106.22,33.64c-0.26,0.22-0.53,0.32-0.87,0.32
	c-0.54,0-1.01-0.36-1.01-0.92c0-0.32,0.18-0.56,0.43-0.73l0.26-0.15c-0.15-0.17-0.27-0.35-0.27-0.58c0-0.23,0.11-0.43,0.27-0.56
	c0.16-0.13,0.38-0.21,0.6-0.21c0.45,0,0.86,0.3,0.86,0.78c0,0.35-0.22,0.6-0.52,0.75l0.31,0.38l0.07-0.14
	c0.02-0.05,0.03-0.1,0.04-0.15h0.62l-0.04,0.2c-0.06,0.2-0.16,0.39-0.3,0.53l0.63,0.74h-0.88L106.22,33.64z M101.08,33.96
	l-0.26-0.02c-0.58-0.07-1.05-0.39-1.06-1.06h0.79c0.02,0.35,0.24,0.47,0.57,0.47c0.24,0,0.48-0.08,0.48-0.31
	c0-0.16-0.16-0.25-0.39-0.31l-0.48-0.13c-0.43-0.12-0.88-0.32-0.88-0.87c0-0.33,0.17-0.56,0.4-0.71c0.24-0.15,0.54-0.21,0.83-0.21
	c0.6,0,1.2,0.29,1.21,0.97h-0.79c0.01-0.28-0.25-0.36-0.49-0.36c-0.17,0-0.38,0.06-0.38,0.26c0,0.23,0.43,0.27,0.88,0.4
	c0.43,0.12,0.88,0.33,0.88,0.87C102.4,33.71,101.75,33.96,101.08,33.96 M96.66,30.88h1.54c0.53,0,1.06,0.24,1.06,0.85
	c0,0.33-0.16,0.63-0.47,0.76v0.01c0.32,0.08,0.42,0.43,0.44,0.72c0.01,0.13,0.02,0.57,0.13,0.68h-0.78c-0.07-0.1-0.08-0.4-0.09-0.48
	c-0.02-0.3-0.07-0.62-0.44-0.62h-0.6v1.1h-0.79V30.88z M95.64,33.5c-0.25,0.28-0.63,0.46-1.1,0.46c-0.95,0-1.49-0.7-1.49-1.57
	c0-0.82,0.47-1.49,1.32-1.57l0.17-0.01c0.95,0,1.49,0.7,1.49,1.57C96.03,32.82,95.9,33.22,95.64,33.5 M92.17,33.5
	c-0.25,0.28-0.63,0.46-1.1,0.46c-0.95,0-1.49-0.7-1.49-1.57c0-0.82,0.47-1.49,1.32-1.57l0.17-0.01c0.95,0,1.49,0.7,1.49,1.57
	C92.56,32.82,92.42,33.22,92.17,33.5 M86.3,30.88h1.3c0.93,0,1.48,0.56,1.48,1.5c0,0.99-0.56,1.52-1.48,1.52h-1.3V30.88z
	 M83.26,34.29l0.15-0.06c0.12-0.07,0.18-0.18,0.2-0.34h-0.35v-0.79h0.79v0.7l-0.02,0.21c-0.09,0.44-0.49,0.59-0.77,0.62V34.29z
	 M81.34,33.96l-0.26-0.02c-0.58-0.07-1.05-0.39-1.06-1.06h0.79c0.02,0.35,0.24,0.47,0.57,0.47c0.24,0,0.48-0.08,0.48-0.31
	c0-0.16-0.16-0.25-0.39-0.31L81,32.6c-0.43-0.12-0.88-0.32-0.88-0.87c0-0.33,0.17-0.56,0.4-0.71c0.24-0.15,0.55-0.21,0.83-0.21
	c0.6,0,1.21,0.29,1.21,0.97h-0.79c0.01-0.28-0.24-0.36-0.49-0.36c-0.17,0-0.38,0.06-0.38,0.26c0,0.23,0.43,0.27,0.88,0.4
	c0.43,0.12,0.88,0.33,0.88,0.87C82.66,33.71,82.01,33.96,81.34,33.96 M76.49,30.88l0.43,2.21h0.01l0.44-2.21h0.74l0.44,2.21h0.01
	l0.43-2.21h0.79l-0.83,3.02h-0.79l-0.42-2.08h-0.01l-0.42,2.08h-0.8l-0.82-3.02H76.49z M75.03,33.5c-0.25,0.28-0.63,0.46-1.1,0.46
	c-0.95,0-1.49-0.7-1.49-1.57c0-0.82,0.47-1.49,1.32-1.57l0.17-0.01c0.95,0,1.49,0.7,1.49,1.57C75.42,32.82,75.29,33.22,75.03,33.5
	 M69.17,30.88h1.3c0.93,0,1.48,0.56,1.48,1.5c0,0.99-0.56,1.52-1.48,1.52h-1.3V30.88z M65.8,30.88h0.81l1.05,1.86h0.01v-1.86h0.74
	v3.02H67.6l-1.05-1.88h-0.01v1.88H65.8V30.88z M64.26,30.88h0.79v3.02h-0.79V30.88z M60.5,30.88l0.43,2.21h0.01l0.44-2.21h0.74
	l0.45,2.21h0.01L63,30.88h0.79l-0.83,3.02h-0.79l-0.41-2.08h-0.01l-0.41,2.08h-0.8l-0.82-3.02H60.5z M56.94,34.29l0.15-0.06
	c0.12-0.07,0.18-0.18,0.2-0.34h-0.35v-0.79h0.79v0.7l-0.02,0.21c-0.09,0.44-0.49,0.59-0.76,0.62V34.29z M55.64,33.57
	c-0.21,0.29-0.56,0.39-0.84,0.39c-0.91,0-1.51-0.7-1.51-1.57c0-0.82,0.52-1.49,1.34-1.57l0.17-0.01l0.24,0.01
	c0.55,0.08,1.07,0.41,1.13,1.08h-0.79c-0.03-0.26-0.28-0.41-0.6-0.41c-0.51,0-0.7,0.45-0.7,0.9c0,0.45,0.2,0.9,0.7,0.9
	c0.39,0,0.65-0.18,0.69-0.46h-0.55v-0.58h1.27v1.66h-0.51L55.64,33.57z M50.06,30.88h0.81l1.05,1.86h0.01v-1.86h0.74v3.02h-0.81
	l-1.05-1.88H50.8v1.88h-0.74V30.88z M48.52,30.88h0.79v3.02h-0.79V30.88z M45.1,30.88h1.3c0.92,0,1.48,0.56,1.48,1.5
	c0,0.99-0.56,1.52-1.48,1.52h-1.3V30.88z M43.56,30.88h0.79v3.02h-0.79V30.88z M41.64,33.96l-0.26-0.02
	c-0.58-0.07-1.05-0.39-1.06-1.06h0.79c0.02,0.35,0.24,0.47,0.57,0.47c0.24,0,0.48-0.08,0.48-0.31c0-0.16-0.16-0.25-0.39-0.31
	L41.3,32.6c-0.43-0.12-0.88-0.32-0.88-0.87c0-0.33,0.17-0.56,0.4-0.71c0.24-0.15,0.55-0.21,0.83-0.21c0.6,0,1.2,0.29,1.21,0.97
	h-0.79c0.01-0.28-0.24-0.36-0.49-0.36c-0.17,0-0.38,0.06-0.38,0.26c0,0.23,0.44,0.27,0.88,0.4c0.44,0.12,0.88,0.33,0.88,0.87
	C42.95,33.71,42.3,33.96,41.64,33.96"/>
<path class="st1" d="M38.87,35.29h85.49v-5.82H38.87V35.29z M120.14,30.88h2.41v0.63h-1.62v0.53h1.48v0.61h-1.48v0.57h1.66v0.68
	h-2.45V30.88z M116.86,30.88h1.54c0.53,0,1.06,0.24,1.06,0.85c0,0.33-0.16,0.63-0.47,0.76v0.01c0.32,0.08,0.41,0.43,0.44,0.72
	c0.01,0.13,0.02,0.57,0.13,0.68h-0.78c-0.07-0.1-0.08-0.4-0.09-0.48c-0.02-0.3-0.07-0.62-0.44-0.62h-0.6v1.1h-0.79V30.88z
	 M115.84,33.5c-0.25,0.28-0.63,0.46-1.1,0.46c-0.95,0-1.49-0.7-1.49-1.57c0-0.82,0.47-1.49,1.32-1.57l0.17-0.01
	c0.95,0,1.49,0.7,1.49,1.57C116.23,32.82,116.09,33.22,115.84,33.5 M109.25,30.88h1.16l0.52,2.01h0.01l0.52-2.01h1.16v3.02h-0.74
	V31.6h-0.01l-0.63,2.29h-0.6L110,31.6h-0.01v2.29h-0.74V30.88z M106.22,33.64c-0.26,0.22-0.53,0.32-0.87,0.32
	c-0.54,0-1.01-0.36-1.01-0.92c0-0.32,0.18-0.56,0.43-0.73l0.26-0.15c-0.15-0.17-0.27-0.35-0.27-0.58c0-0.23,0.11-0.43,0.27-0.56
	c0.16-0.13,0.38-0.21,0.6-0.21c0.45,0,0.86,0.3,0.86,0.78c0,0.35-0.22,0.6-0.52,0.75l0.31,0.38l0.07-0.14
	c0.02-0.05,0.03-0.1,0.04-0.15h0.62l-0.04,0.2c-0.06,0.2-0.16,0.39-0.3,0.53l0.63,0.74h-0.88L106.22,33.64z M101.08,33.96
	l-0.26-0.02c-0.58-0.07-1.05-0.39-1.06-1.06h0.79c0.02,0.35,0.24,0.47,0.57,0.47c0.24,0,0.48-0.08,0.48-0.31
	c0-0.16-0.16-0.25-0.39-0.31l-0.48-0.13c-0.43-0.12-0.88-0.32-0.88-0.87c0-0.33,0.17-0.56,0.4-0.71c0.24-0.15,0.54-0.21,0.83-0.21
	c0.6,0,1.2,0.29,1.21,0.97h-0.79c0.01-0.28-0.25-0.36-0.49-0.36c-0.17,0-0.38,0.06-0.38,0.26c0,0.23,0.43,0.27,0.88,0.4
	c0.43,0.12,0.88,0.33,0.88,0.87C102.4,33.71,101.75,33.96,101.08,33.96 M96.66,30.88h1.54c0.53,0,1.06,0.24,1.06,0.85
	c0,0.33-0.16,0.63-0.47,0.76v0.01c0.32,0.08,0.42,0.43,0.44,0.72c0.01,0.13,0.02,0.57,0.13,0.68h-0.78c-0.07-0.1-0.08-0.4-0.09-0.48
	c-0.02-0.3-0.07-0.62-0.44-0.62h-0.6v1.1h-0.79V30.88z M95.64,33.5c-0.25,0.28-0.63,0.46-1.1,0.46c-0.95,0-1.49-0.7-1.49-1.57
	c0-0.82,0.47-1.49,1.32-1.57l0.17-0.01c0.95,0,1.49,0.7,1.49,1.57C96.03,32.82,95.9,33.22,95.64,33.5 M92.17,33.5
	c-0.25,0.28-0.63,0.46-1.1,0.46c-0.95,0-1.49-0.7-1.49-1.57c0-0.82,0.47-1.49,1.32-1.57l0.17-0.01c0.95,0,1.49,0.7,1.49,1.57
	C92.56,32.82,92.42,33.22,92.17,33.5 M86.3,30.88h1.3c0.93,0,1.48,0.56,1.48,1.5c0,0.99-0.56,1.52-1.48,1.52h-1.3V30.88z
	 M83.26,34.29l0.15-0.06c0.12-0.07,0.18-0.18,0.2-0.34h-0.35v-0.79h0.79v0.7l-0.02,0.21c-0.09,0.44-0.49,0.59-0.77,0.62V34.29z
	 M81.34,33.96l-0.26-0.02c-0.58-0.07-1.05-0.39-1.06-1.06h0.79c0.02,0.35,0.24,0.47,0.57,0.47c0.24,0,0.48-0.08,0.48-0.31
	c0-0.16-0.16-0.25-0.39-0.31L81,32.6c-0.43-0.12-0.88-0.32-0.88-0.87c0-0.33,0.17-0.56,0.4-0.71c0.24-0.15,0.55-0.21,0.83-0.21
	c0.6,0,1.21,0.29,1.21,0.97h-0.79c0.01-0.28-0.24-0.36-0.49-0.36c-0.17,0-0.38,0.06-0.38,0.26c0,0.23,0.43,0.27,0.88,0.4
	c0.43,0.12,0.88,0.33,0.88,0.87C82.66,33.71,82.01,33.96,81.34,33.96 M76.49,30.88l0.43,2.21h0.01l0.44-2.21h0.74l0.44,2.21h0.01
	l0.43-2.21h0.79l-0.83,3.02h-0.79l-0.42-2.08h-0.01l-0.42,2.08h-0.8l-0.82-3.02H76.49z M75.03,33.5c-0.25,0.28-0.63,0.46-1.1,0.46
	c-0.95,0-1.49-0.7-1.49-1.57c0-0.82,0.47-1.49,1.32-1.57l0.17-0.01c0.95,0,1.49,0.7,1.49,1.57C75.42,32.82,75.29,33.22,75.03,33.5
	 M69.17,30.88h1.3c0.93,0,1.48,0.56,1.48,1.5c0,0.99-0.56,1.52-1.48,1.52h-1.3V30.88z M65.8,30.88h0.81l1.05,1.86h0.01v-1.86h0.74
	v3.02H67.6l-1.05-1.88h-0.01v1.88H65.8V30.88z M64.26,30.88h0.79v3.02h-0.79V30.88z M60.5,30.88l0.43,2.21h0.01l0.44-2.21h0.74
	l0.45,2.21h0.01L63,30.88h0.79l-0.83,3.02h-0.79l-0.41-2.08h-0.01l-0.41,2.08h-0.8l-0.82-3.02H60.5z M56.94,34.29l0.15-0.06
	c0.12-0.07,0.18-0.18,0.2-0.34h-0.35v-0.79h0.79v0.7l-0.02,0.21c-0.09,0.44-0.49,0.59-0.76,0.62V34.29z M55.64,33.57
	c-0.21,0.29-0.56,0.39-0.84,0.39c-0.91,0-1.51-0.7-1.51-1.57c0-0.82,0.52-1.49,1.34-1.57l0.17-0.01l0.24,0.01
	c0.55,0.08,1.07,0.41,1.13,1.08h-0.79c-0.03-0.26-0.28-0.41-0.6-0.41c-0.51,0-0.7,0.45-0.7,0.9c0,0.45,0.2,0.9,0.7,0.9
	c0.39,0,0.65-0.18,0.69-0.46h-0.55v-0.58h1.27v1.66h-0.51L55.64,33.57z M50.06,30.88h0.81l1.05,1.86h0.01v-1.86h0.74v3.02h-0.81
	l-1.05-1.88H50.8v1.88h-0.74V30.88z M48.52,30.88h0.79v3.02h-0.79V30.88z M45.1,30.88h1.3c0.92,0,1.48,0.56,1.48,1.5
	c0,0.99-0.56,1.52-1.48,1.52h-1.3V30.88z M43.56,30.88h0.79v3.02h-0.79V30.88z M41.64,33.96l-0.26-0.02
	c-0.58-0.07-1.05-0.39-1.06-1.06h0.79c0.02,0.35,0.24,0.47,0.57,0.47c0.24,0,0.48-0.08,0.48-0.31c0-0.16-0.16-0.25-0.39-0.31
	L41.3,32.6c-0.43-0.12-0.88-0.32-0.88-0.87c0-0.33,0.17-0.56,0.4-0.71c0.24-0.15,0.55-0.21,0.83-0.21c0.6,0,1.2,0.29,1.21,0.97
	h-0.79c0.01-0.28-0.24-0.36-0.49-0.36c-0.17,0-0.38,0.06-0.38,0.26c0,0.23,0.44,0.27,0.88,0.4c0.44,0.12,0.88,0.33,0.88,0.87
	C42.95,33.71,42.3,33.96,41.64,33.96"/>
<path class="st1" d="M91.07,33.28c0.51,0,0.7-0.45,0.7-0.9c0-0.22-0.05-0.45-0.16-0.62c-0.11-0.17-0.29-0.28-0.54-0.28
	c-0.51,0-0.7,0.45-0.7,0.9C90.37,32.83,90.56,33.28,91.07,33.28"/>
<path class="st1" d="M47.09,32.37l-0.01-0.19c-0.06-0.42-0.35-0.62-0.82-0.62h-0.37v1.67h0.37l0.21-0.01
	C46.91,33.14,47.09,32.9,47.09,32.37"/>
<path class="st1" d="M94.54,33.28c0.51,0,0.7-0.45,0.7-0.9c0-0.22-0.05-0.45-0.16-0.62c-0.11-0.17-0.29-0.28-0.54-0.28
	c-0.51,0-0.7,0.45-0.7,0.9C93.84,32.83,94.03,33.28,94.54,33.28"/>
<path class="st1" d="M73.93,33.28c0.51,0,0.7-0.45,0.7-0.9c0-0.22-0.05-0.45-0.16-0.62c-0.11-0.17-0.29-0.28-0.54-0.28
	c-0.51,0-0.7,0.45-0.7,0.9C73.23,32.83,73.42,33.28,73.93,33.28"/>
<path class="st1" d="M114.74,33.28c0.51,0,0.7-0.45,0.7-0.9c0-0.22-0.05-0.45-0.16-0.62c-0.11-0.17-0.29-0.28-0.54-0.28
	c-0.51,0-0.7,0.45-0.7,0.9C114.04,32.83,114.23,33.28,114.74,33.28"/>
<path class="st1" d="M105.9,31.55c0-0.15-0.11-0.23-0.25-0.23c-0.07,0-0.12,0.02-0.17,0.06c-0.04,0.04-0.07,0.1-0.07,0.16
	c0,0.16,0.12,0.26,0.21,0.38C105.77,31.83,105.9,31.73,105.9,31.55"/>
<path class="st1" d="M118.67,31.83l-0.01-0.08c-0.04-0.17-0.2-0.25-0.39-0.25h-0.63v0.68h0.66l0.16-0.02
	C118.6,32.12,118.67,32,118.67,31.83"/>
<path class="st1" d="M105.44,33.37l0.1-0.02c0.11-0.04,0.21-0.12,0.3-0.2l-0.45-0.53c-0.15,0.07-0.35,0.22-0.35,0.4
	C105.04,33.24,105.25,33.37,105.44,33.37"/>
<path class="st0" d="M42.27,9.72h4.09l0.83,2.43h2.49L45.59,1.22h-2.46l-4.14,10.93h2.42L42.27,9.72z M44.32,3.92h0.03l1.38,4.01
	H42.9L44.32,3.92z"/>
<polygon class="st0" points="52.76,4.49 52.79,4.49 55.47,12.16 57.33,12.16 60.01,4.41 60.04,4.41 60.04,12.16 62.29,12.16 
	62.29,1.22 58.9,1.22 56.49,8.74 56.45,8.74 53.9,1.22 50.51,1.22 50.51,12.16 52.76,12.16 "/>
<path class="st0" d="M66.41,9.72h4.09l0.83,2.43h2.5L69.73,1.22h-2.46l-4.14,10.93h2.42L66.41,9.72z M68.46,3.92h0.03l1.38,4.01
	h-2.83L68.46,3.92z"/>
<path class="st0" d="M84.83,12.16h2.4V1.22h-2.4V12.16z M83.55,10.14h-6.02l5.87-7.01v-1.9h-8.61v2.02h5.4l-5.86,7.01v1.9h9.22
	V10.14z"/>
<polygon class="st0" points="91.42,4.84 91.45,4.84 95.99,12.16 98.4,12.16 98.4,1.22 96.15,1.22 96.15,8.56 96.12,8.56 91.55,1.22 
	89.16,1.22 89.16,12.16 91.42,12.16 "/>
<path class="st0" d="M39.07,25.28h8.3v-1.17h-8.3V25.28z M39.07,15.5h8.18v-1.15h-8.18V15.5z M105.37,8.04h2.42
	c-0.07,0.77-0.32,1.35-0.76,1.75c-0.43,0.4-1.05,0.6-1.85,0.6c-0.54,0-1-0.1-1.38-0.31c-0.38-0.21-0.68-0.49-0.92-0.83
	c-0.24-0.35-0.41-0.74-0.51-1.17c-0.11-0.43-0.16-0.88-0.16-1.34c0-0.48,0.05-0.94,0.16-1.39c0.11-0.45,0.28-0.85,0.51-1.2
	c0.23-0.35,0.54-0.63,0.92-0.84c0.38-0.21,0.84-0.31,1.38-0.31c0.58,0,1.08,0.15,1.49,0.46c0.41,0.31,0.68,0.77,0.83,1.38h2.3
	c-0.06-0.62-0.23-1.17-0.51-1.65c-0.28-0.48-0.62-0.88-1.05-1.21c-0.42-0.33-0.9-0.57-1.42-0.74c-0.53-0.17-1.07-0.25-1.63-0.25
	c-0.84,0-1.59,0.15-2.26,0.44c-0.67,0.3-1.23,0.7-1.69,1.22c-0.46,0.52-0.81,1.13-1.05,1.83c-0.25,0.7-0.37,1.46-0.37,2.27
	c0,0.8,0.12,1.54,0.37,2.23c0.18,0.52,0.43,0.98,0.73,1.4l0.32,0.4c0.46,0.51,1.02,0.91,1.69,1.2c0.33,0.15,0.69,0.26,1.07,0.33
	c0.38,0.07,0.77,0.11,1.19,0.11c0.53,0,1.06-0.11,1.58-0.33c0.52-0.22,0.99-0.6,1.42-1.16l0.25,1.24h1.53V6.25h-4.59V8.04z"/>
<polygon class="st0" points="47.37,23.26 41.47,23.26 41.47,22.08 39.07,22.08 39.07,23.65 47.37,23.65 "/>
<polygon class="st0" points="46.77,18.71 41.47,18.71 41.47,18.01 39.07,18.01 39.07,19.57 46.77,19.57 "/>
<polygon class="st0" points="41.47,16.37 47.24,16.37 47.24,15.97 39.07,15.97 39.07,17.54 41.47,17.54 "/>
<polygon class="st0" points="41.47,20.58 46.77,20.58 46.77,20.04 39.07,20.04 39.07,21.61 41.47,21.61 "/>
<polygon class="st0" points="51.79,19.57 54.55,19.57 54.55,19.57 55.6,18.01 50.75,18.01 51.8,19.56 "/>
<polygon class="st0" points="47.98,25.28 50.68,25.28 51.43,24.12 48.76,24.12 "/>
<polygon class="st0" points="58.06,14.35 55.43,14.35 54.69,15.5 57.29,15.5 "/>
<polygon class="st0" points="55.92,17.54 56.97,15.97 54.4,15.97 53.4,17.54 "/>
<polygon class="st0" points="53.02,17.54 52.06,15.97 49.37,15.97 50.43,17.54 "/>
<polygon class="st0" points="55.5,25.28 58.37,25.28 57.59,24.12 54.77,24.12 "/>
<polygon class="st0" points="57.27,23.65 56.23,22.08 53.48,22.08 54.47,23.65 "/>
<polygon class="st0" points="51.06,14.35 48.27,14.35 49.05,15.5 51.77,15.5 "/>
<polygon class="st0" points="53.04,21.61 53.11,21.5 53.18,21.61 55.91,21.61 54.87,20.04 51.47,20.04 50.43,21.61 "/>
<path class="st0" d="M61.92,23.65h2.4v-1.57h-2.4V23.65z M51.73,23.65l1.01-1.57h-2.62l-1.04,1.57H51.73z"/>
<path class="st0" d="M61.92,21.61h2.4v-1.57h-2.4V21.61z M58.65,15.5h8.96v-1.15h-8.96V15.5z M61.92,16.37v1.16h2.4v-1.16h3.28v-0.4
	h-8.96v0.4H61.92z"/>
<path class="st0" d="M68.58,15.5h8.18v-1.15h-8.18V15.5z M68.58,25.28h8.3v-1.17h-8.3V25.28z M61.92,25.28h2.4v-1.17h-2.4V25.28z
	 M61.92,19.57h2.4v-1.57h-2.4V19.57z"/>
<polygon class="st0" points="76.28,19.57 76.28,18.71 70.98,18.71 70.98,18.01 68.58,18.01 68.58,19.57 "/>
<polygon class="st0" points="70.98,21.61 70.98,20.58 76.28,20.58 76.28,20.04 68.58,20.04 68.58,21.61 "/>
<polygon class="st0" points="70.98,17.54 70.98,16.37 76.75,16.37 76.75,15.97 68.58,15.97 68.58,17.54 "/>
<polygon class="st0" points="76.88,23.65 76.88,23.26 70.98,23.26 70.98,22.08 68.58,22.08 68.58,23.65 "/>
<path class="st0" d="M85.37,25.28h2.4c-0.11-0.15-0.2-0.34-0.25-0.56c-0.05-0.19-0.08-0.4-0.11-0.61h-2.28l0.03,0.33
	C85.21,24.76,85.28,25.04,85.37,25.28"/>
<path class="st0" d="M84.64,18.93l-0.11,0.09c-0.27,0.19-0.65,0.28-1.13,0.28h-2.63v-1.29h-2.4v1.57h8.25
	c0.18-0.16,0.32-0.34,0.44-0.54c0.09-0.15,0.16-0.32,0.22-0.49c0.06-0.17,0.1-0.35,0.13-0.54h-2.36
	C85,18.42,84.87,18.73,84.64,18.93"/>
<path class="st0" d="M86.59,15.24c-0.28-0.28-0.62-0.49-1.01-0.65c-0.2-0.08-0.4-0.14-0.63-0.18c-0.22-0.04-0.45-0.06-0.7-0.06h-5.9
	v1.15h8.46L86.59,15.24z"/>
<path class="st0" d="M87.23,16.19l-0.11-0.22h-8.77v1.57h2.4v-1.32h2.63c0.55,0,0.96,0.12,1.24,0.36c0.24,0.21,0.38,0.53,0.41,0.96
	h2.4c0-0.06,0.01-0.11,0.01-0.17C87.45,16.95,87.38,16.56,87.23,16.19"/>
<path class="st0" d="M78.36,25.28h2.4v-1.17h-2.4V25.28z M87.35,23.31c-0.01-0.23-0.02-0.44-0.03-0.61
	c-0.01-0.21-0.04-0.41-0.08-0.62h-2.38l0.08,0.28c0.02,0.1,0.04,0.2,0.06,0.31l0.11,0.98h2.28C87.36,23.53,87.35,23.42,87.35,23.31"
	/>
<rect x="78.36" y="22.08" class="st0" width="2.4" height="1.57"/>
<path class="st0" d="M89.2,15.5h2.4v-1.15h-2.4V15.5z M89.2,25.28h2.4v-1.17h-2.4V25.28z M89.2,19.57h2.4v-1.57h-2.4V19.57z
	 M89.2,21.61h2.4v-1.57h-2.4V21.61z M86.93,21.11c-0.12-0.23-0.28-0.43-0.48-0.6c-0.2-0.17-0.44-0.29-0.73-0.38v-0.03l0.15-0.07
	h-7.51v1.57h2.4v-0.6h2.4c0.6,0,1.04,0.13,1.3,0.4l0.16,0.2h2.5C87.08,21.43,87.02,21.26,86.93,21.11"/>
<path class="st0" d="M89.2,23.65h2.4v-1.57h-2.4V23.65z M89.2,17.54h2.4v-1.57h-2.4V17.54z"/>
<path class="st0" d="M96.15,25.09c0.67,0.29,1.42,0.44,2.26,0.44c0.42,0,0.82-0.04,1.2-0.11c0.38-0.07,0.73-0.18,1.06-0.33
	c0.56-0.25,1.04-0.57,1.46-0.98h-7.45l0.33,0.29C95.35,24.68,95.73,24.91,96.15,25.09"/>
<path class="st0" d="M95.45,19.57c0.02-0.38,0.07-0.75,0.15-1.1c0.02-0.08,0.04-0.16,0.07-0.24l0.08-0.23h-2.47l-0.09,0.38
	c-0.08,0.38-0.13,0.78-0.14,1.19H95.45z"/>
<path class="st0" d="M101.08,18.01c0.05,0.15,0.1,0.3,0.14,0.46l0.1,0.55l0.05,0.56h2.4l-0.02-0.41c-0.04-0.4-0.11-0.79-0.21-1.16
	H101.08z"/>
<path class="st0" d="M95.49,20.63l-0.03-0.29c-0.01-0.1-0.01-0.2-0.02-0.29h-2.4l0.02,0.41c0.03,0.4,0.09,0.79,0.19,1.16h2.47
	c-0.05-0.13-0.09-0.27-0.13-0.41C95.56,21.01,95.52,20.82,95.49,20.63"/>
<path class="st0" d="M94.29,15.97l-0.26,0.36c-0.24,0.37-0.45,0.77-0.61,1.21h2.53c0.05-0.09,0.1-0.18,0.16-0.27
	c0.12-0.18,0.25-0.33,0.41-0.47c0.15-0.14,0.32-0.26,0.51-0.37c0.38-0.21,0.84-0.31,1.38-0.31c0.54,0,1,0.1,1.38,0.31
	c0.38,0.21,0.68,0.49,0.92,0.84l0.16,0.27h2.53l-0.17-0.43c-0.19-0.41-0.42-0.79-0.69-1.14H94.29z"/>
<path class="st0" d="M100.71,22.37c-0.23,0.35-0.54,0.62-0.92,0.84c-0.38,0.21-0.84,0.31-1.38,0.31c-0.54,0-1-0.1-1.38-0.31
	c-0.38-0.21-0.68-0.49-0.92-0.84l-0.18-0.29H93.4c0,0,0,0.01,0,0.01c0.16,0.44,0.36,0.84,0.6,1.2l0.26,0.35h8.3
	c0.36-0.45,0.65-0.97,0.86-1.55l0-0.01h-2.54C100.83,22.18,100.77,22.28,100.71,22.37"/>
<path class="st0" d="M101.38,20.04l-0.02,0.29c0,0.1-0.05,0.49-0.14,0.86l-0.13,0.41h2.47l0.09-0.38c0.08-0.38,0.12-0.78,0.13-1.19
	H101.38z"/>
<path class="st0" d="M100.68,14.53c-0.66-0.3-1.42-0.44-2.27-0.44c-0.42,0-0.82,0.04-1.19,0.11c-0.38,0.07-0.73,0.18-1.07,0.33
	c-0.55,0.24-1.03,0.57-1.44,0.97h7.39l-0.32-0.28C101.46,14.95,101.09,14.72,100.68,14.53"/>
<path class="st0" d="M105.19,23.65h2.4v-1.57h-2.4V23.65z M114.35,24.72l-0.06-0.3c-0.02-0.1-0.03-0.21-0.05-0.31h-2.28l0.04,0.33
	c0.03,0.21,0.07,0.4,0.12,0.59l0.08,0.26h2.4C114.49,25.13,114.41,24.94,114.35,24.72"/>
<path class="st0" d="M105.19,25.28h2.4v-1.17h-2.4V25.28z M107.59,21.01h2.4c0.6,0,1.04,0.13,1.3,0.4l0.16,0.2h2.5
	c-0.05-0.18-0.11-0.34-0.2-0.5c-0.12-0.23-0.28-0.43-0.47-0.6c-0.19-0.17-0.44-0.29-0.74-0.38v-0.03l0.15-0.07h-7.51v1.57h2.4V21.01
	z"/>
<path class="st0" d="M114.06,16.19l-0.11-0.22h-8.77v1.57h2.4v-1.32h2.64c0.55,0,0.96,0.12,1.24,0.36c0.24,0.21,0.38,0.53,0.41,0.96
	h2.4c0-0.06,0.01-0.11,0.01-0.17C114.28,16.95,114.21,16.56,114.06,16.19"/>
<path class="st0" d="M113.42,15.24c-0.28-0.28-0.62-0.49-1.01-0.65c-0.2-0.08-0.4-0.14-0.63-0.18c-0.22-0.04-0.45-0.06-0.7-0.06
	h-5.89v1.15h8.46L113.42,15.24z"/>
<path class="st0" d="M111.47,18.93l-0.11,0.09c-0.27,0.19-0.65,0.28-1.13,0.28h-2.64v-1.29h-2.4v1.57h8.25
	c0.18-0.16,0.32-0.34,0.44-0.54c0.09-0.15,0.16-0.32,0.22-0.49c0.06-0.17,0.1-0.35,0.13-0.54h-2.36
	C111.83,18.42,111.69,18.73,111.47,18.93"/>
<path class="st0" d="M114.18,23.31c-0.01-0.23-0.02-0.44-0.03-0.61c-0.02-0.21-0.05-0.41-0.08-0.62h-2.38l0.08,0.28
	c0.02,0.1,0.04,0.2,0.06,0.31l0.11,0.98h2.28C114.19,23.53,114.18,23.42,114.18,23.31"/>
<path class="st0" d="M116,18.68c0.19,0.35,0.44,0.65,0.74,0.88c0,0,0.01,0.01,0.01,0.01l0.01,0.01h6.45
	c-0.35-0.23-0.7-0.39-1.06-0.5c-0.36-0.11-0.64-0.18-0.85-0.22c-0.68-0.17-1.24-0.32-1.66-0.43c-0.42-0.11-0.76-0.22-1-0.34
	l-0.15-0.08h-2.72l0.09,0.35C115.9,18.47,115.94,18.58,116,18.68"/>
<path class="st0" d="M124.16,20.53l-0.19-0.26c-0.06-0.08-0.13-0.16-0.2-0.23h-6.2l0.21,0.09c0.39,0.15,0.79,0.27,1.19,0.38
	c0.2,0.06,0.4,0.11,0.59,0.16c0.2,0.05,0.39,0.1,0.59,0.15c0.39,0.09,0.73,0.2,1.04,0.32c0.31,0.12,0.55,0.28,0.74,0.46l0.01,0.02
	h2.57C124.48,21.19,124.36,20.83,124.16,20.53"/>
<path class="st0" d="M122.85,14.9c-0.41-0.29-0.88-0.49-1.4-0.62c-0.26-0.06-0.53-0.11-0.81-0.14c-0.27-0.03-0.55-0.05-0.84-0.05
	c-0.49,0-0.98,0.07-1.47,0.2c-0.49,0.13-0.93,0.34-1.32,0.61c-0.24,0.17-0.45,0.37-0.64,0.6h7.11l-0.3-0.32
	C123.08,15.08,122.97,14.99,122.85,14.9"/>
<path class="st0" d="M115.86,23.65h3.76c-0.15-0.02-0.3-0.05-0.44-0.09c-0.3-0.08-0.55-0.19-0.77-0.35
	c-0.22-0.16-0.39-0.36-0.53-0.62c-0.08-0.15-0.13-0.32-0.16-0.51h-2.35c0.04,0.5,0.15,0.94,0.35,1.32L115.86,23.65z"/>
<path class="st0" d="M123.82,16l-0.02-0.03h-3.84l0.28,0.02l0.27,0.04c0.25,0.05,0.47,0.14,0.67,0.26c0.1,0.06,0.18,0.14,0.26,0.22
	c0.08,0.08,0.15,0.18,0.2,0.29c0.11,0.2,0.17,0.44,0.2,0.74h2.33C124.17,16.94,124.05,16.42,123.82,16"/>
<path class="st0" d="M116.75,24.61c0.43,0.32,0.93,0.55,1.5,0.7c0.28,0.07,0.57,0.13,0.86,0.17c0.29,0.04,0.59,0.06,0.89,0.06
	c0.74,0,1.4-0.09,1.97-0.26c0.57-0.17,1.04-0.42,1.42-0.73c0.16-0.13,0.3-0.27,0.43-0.43h-7.61l0.26,0.26
	C116.55,24.46,116.65,24.54,116.75,24.61"/>
<path class="st0" d="M115.72,17.54h2.36c-0.03-0.1-0.04-0.21-0.04-0.34c0-0.23,0.05-0.43,0.15-0.58c0.1-0.15,0.23-0.28,0.39-0.38
	c0.16-0.1,0.33-0.17,0.53-0.21l0.35-0.05h-3.41l-0.15,0.32c-0.13,0.33-0.19,0.7-0.19,1.11L115.72,17.54z"/>
<path class="st0" d="M122.22,22.31c0,0.28-0.07,0.5-0.21,0.68c-0.07,0.09-0.15,0.17-0.24,0.24c-0.09,0.07-0.19,0.13-0.3,0.18
	c-0.21,0.1-0.44,0.17-0.69,0.21l-0.21,0.02h3.57c0.04-0.07,0.08-0.14,0.11-0.22c0.19-0.42,0.28-0.87,0.29-1.35h-2.35L122.22,22.31z"
	/>
<path class="st2" d="M43.56,33.9h0.79v-3.02h-0.79V33.9z M42.08,32.08c-0.44-0.12-0.88-0.16-0.88-0.4c0-0.2,0.21-0.26,0.38-0.26
	c0.24,0,0.5,0.09,0.49,0.36h0.79c-0.01-0.68-0.61-0.97-1.21-0.97c-0.57,0-1.23,0.26-1.23,0.92c0,0.55,0.45,0.75,0.88,0.87
	c0.44,0.12,0.87,0.17,0.87,0.44c0,0.17-0.14,0.26-0.31,0.29l-0.18,0.02l-0.23-0.02c-0.2-0.05-0.33-0.18-0.34-0.45h-0.79
	c0.01,0.77,0.62,1.08,1.31,1.08c0.67,0,1.32-0.24,1.32-1.01C42.95,32.4,42.51,32.2,42.08,32.08"/>
<path class="st2" d="M48.52,33.9h0.79v-3.02h-0.79V33.9z M47.88,32.37l-0.03-0.33c-0.12-0.74-0.65-1.17-1.45-1.17h-1.3v3.02h1.3
	l0.33-0.03c0.62-0.1,1.03-0.49,1.13-1.15L47.88,32.37z M45.89,33.22v-1.67h0.37c0.54,0,0.83,0.27,0.83,0.82
	c0,0.6-0.24,0.84-0.83,0.85H45.89z"/>
<polygon class="st2" points="50.8,32.01 50.81,32.01 51.86,33.9 52.66,33.9 52.66,30.87 51.92,30.87 51.92,32.74 51.91,32.74 
	50.87,30.87 50.06,30.87 50.06,33.9 50.8,33.9 "/>
<path class="st2" d="M54.92,32.82h0.55c-0.04,0.28-0.3,0.46-0.69,0.46c-0.51,0-0.7-0.45-0.7-0.9c0-0.45,0.2-0.9,0.7-0.9
	c0.32,0,0.57,0.16,0.6,0.41h0.79c-0.07-0.76-0.74-1.09-1.37-1.09c-0.91,0-1.51,0.7-1.51,1.57c0,0.82,0.52,1.49,1.34,1.57l0.17,0.01
	l0.22-0.02c0.23-0.04,0.47-0.15,0.62-0.37l0.05,0.33h0.51v-1.65h-1.27V32.82z"/>
<path class="st2" d="M56.94,33.9h0.35l-0.03,0.15c-0.05,0.13-0.14,0.21-0.31,0.25v0.34l0.12-0.02c0.15-0.01,0.55-0.16,0.64-0.6
	l0.02-0.21v-0.7h-0.79V33.9z"/>
<path class="st2" d="M64.26,33.9h0.79v-3.02h-0.79V33.9z M61.33,33.9l0.41-2.08h0.01l0.41,2.08h0.79l0.83-3.02H63l-0.43,2.21h-0.01
	l-0.44-2.21h-0.74l-0.45,2.21h-0.01l-0.43-2.21h-0.79l0.82,3.02H61.33z"/>
<polygon class="st2" points="66.54,32.01 66.55,32.01 67.6,33.9 68.41,33.9 68.41,30.87 67.67,30.87 67.67,32.74 67.66,32.74 
	66.61,30.87 65.8,30.87 65.8,33.9 66.54,33.9 "/>
<path class="st2" d="M71.95,32.37l-0.03-0.33c-0.12-0.74-0.65-1.17-1.46-1.17h-1.3v3.02h1.3l0.33-0.03c0.62-0.1,1.02-0.49,1.13-1.15
	L71.95,32.37z M69.95,33.22v-1.67h0.37c0.54,0,0.83,0.27,0.83,0.82c0,0.6-0.24,0.84-0.83,0.85H69.95z"/>
<path class="st2" d="M73.93,30.81c-0.95,0-1.49,0.7-1.49,1.57c0,0.82,0.47,1.49,1.32,1.57l0.17,0.01c0.95,0,1.49-0.7,1.49-1.58
	c0-0.44-0.14-0.83-0.39-1.11C74.78,30.99,74.41,30.81,73.93,30.81 M74.47,33c-0.11,0.17-0.29,0.28-0.54,0.28
	c-0.51,0-0.7-0.45-0.7-0.9c0-0.39,0.15-0.78,0.53-0.88l0.18-0.02c0.51,0,0.7,0.45,0.7,0.9C74.63,32.61,74.58,32.83,74.47,33"/>
<polygon class="st2" points="77.32,33.9 77.73,31.81 77.74,31.81 78.15,33.9 78.94,33.9 79.77,30.88 78.99,30.88 78.56,33.08 
	78.55,33.08 78.11,30.88 77.37,30.88 76.92,33.08 76.92,33.08 76.49,30.88 75.7,30.88 76.52,33.9 "/>
<path class="st2" d="M81.78,32.08c-0.44-0.12-0.88-0.16-0.88-0.4c0-0.2,0.21-0.26,0.38-0.26c0.24,0,0.5,0.09,0.49,0.36h0.79
	c0-0.68-0.61-0.97-1.21-0.97c-0.57,0-1.23,0.26-1.23,0.92c0,0.55,0.45,0.75,0.88,0.87c0.43,0.12,0.87,0.17,0.87,0.44
	c0,0.17-0.14,0.26-0.31,0.29l-0.18,0.02l-0.23-0.02c-0.2-0.05-0.33-0.18-0.34-0.45h-0.79c0.01,0.77,0.62,1.08,1.31,1.08
	c0.66,0,1.32-0.24,1.32-1.01C82.66,32.4,82.22,32.2,81.78,32.08"/>
<path class="st2" d="M83.26,33.9h0.35l-0.03,0.15c-0.05,0.13-0.14,0.21-0.31,0.25v0.34l0.12-0.02c0.15-0.01,0.55-0.16,0.64-0.6
	l0.02-0.21v-0.7h-0.79V33.9z"/>
<path class="st2" d="M89.08,32.37l-0.03-0.33c-0.12-0.74-0.65-1.17-1.46-1.17h-1.3v3.02h1.3l0.33-0.03c0.62-0.1,1.02-0.49,1.13-1.15
	L89.08,32.37z M87.09,33.22v-1.67h0.37c0.54,0,0.83,0.27,0.83,0.82c0,0.6-0.24,0.84-0.83,0.85H87.09z"/>
<path class="st2" d="M91.07,30.81c-0.95,0-1.49,0.7-1.49,1.57c0,0.82,0.47,1.49,1.32,1.57l0.17,0.01c0.95,0,1.49-0.7,1.49-1.58
	c0-0.44-0.14-0.83-0.39-1.11C91.92,30.99,91.54,30.81,91.07,30.81 M91.61,33c-0.11,0.17-0.29,0.28-0.54,0.28
	c-0.51,0-0.7-0.45-0.7-0.9c0-0.39,0.15-0.78,0.53-0.88l0.18-0.02c0.51,0,0.7,0.45,0.7,0.9C91.77,32.61,91.72,32.83,91.61,33"/>
<path class="st2" d="M94.54,30.81c-0.95,0-1.49,0.7-1.49,1.57c0,0.82,0.47,1.49,1.32,1.57l0.17,0.01c0.95,0,1.49-0.7,1.49-1.58
	c0-0.44-0.14-0.83-0.39-1.11C95.39,30.99,95.02,30.81,94.54,30.81 M95.08,33c-0.11,0.17-0.29,0.28-0.54,0.28
	c-0.51,0-0.7-0.45-0.7-0.9c0-0.39,0.15-0.78,0.53-0.88l0.18-0.02c0.51,0,0.7,0.45,0.7,0.9C95.24,32.61,95.19,32.83,95.08,33"/>
<path class="st2" d="M96.66,30.88v3.02h0.79v-1.1h0.6c0.37,0,0.42,0.31,0.44,0.62c0.01,0.08,0.02,0.38,0.09,0.48h0.78
	c-0.11-0.11-0.12-0.55-0.13-0.68c-0.02-0.29-0.12-0.65-0.44-0.72v-0.01c0.32-0.12,0.48-0.43,0.48-0.76c0-0.61-0.53-0.85-1.06-0.85
	H96.66z M97.45,31.51h0.63c0.22,0,0.4,0.1,0.4,0.33c0,0.23-0.13,0.36-0.36,0.36h-0.66V31.51z"/>
<path class="st2" d="M101.52,32.08c-0.44-0.12-0.88-0.16-0.88-0.4c0-0.2,0.21-0.26,0.38-0.26c0.24,0,0.5,0.09,0.49,0.36h0.79
	c-0.01-0.68-0.61-0.97-1.21-0.97c-0.57,0-1.23,0.26-1.23,0.92c0,0.55,0.45,0.75,0.88,0.87c0.44,0.12,0.87,0.17,0.87,0.44
	c0,0.17-0.14,0.26-0.31,0.29l-0.18,0.02l-0.23-0.02c-0.2-0.05-0.33-0.18-0.34-0.45h-0.79c0.01,0.77,0.62,1.08,1.31,1.08
	c0.66,0,1.32-0.24,1.32-1.01C102.4,32.4,101.96,32.2,101.52,32.08"/>
<path class="st2" d="M105.63,30.81c-0.43,0-0.86,0.3-0.86,0.77c0,0.23,0.12,0.41,0.27,0.58c-0.36,0.17-0.68,0.45-0.68,0.88
	c0,0.49,0.36,0.83,0.81,0.91l0.2,0.02l0.24-0.02c0.23-0.04,0.43-0.14,0.63-0.3l0.21,0.25h0.88l-0.63-0.74L106.8,33
	c0.11-0.17,0.19-0.37,0.21-0.58h-0.62l-0.04,0.16c-0.02,0.05-0.04,0.1-0.07,0.14l-0.31-0.38c0.3-0.15,0.52-0.4,0.52-0.75
	C106.49,31.11,106.08,30.81,105.63,30.81 M105.62,31.92c-0.09-0.12-0.21-0.22-0.21-0.38c0-0.1,0.06-0.17,0.14-0.21l0.09-0.02
	c0.15,0,0.26,0.09,0.26,0.23c0,0.09-0.03,0.16-0.08,0.22C105.76,31.83,105.69,31.88,105.62,31.92 M105.44,33.37
	c-0.2,0-0.4-0.14-0.4-0.35c0-0.14,0.11-0.25,0.23-0.33l0.12-0.07l0.45,0.53C105.73,33.26,105.58,33.37,105.44,33.37"/>
<polygon class="st2" points="109.99,31.6 110,31.6 110.63,33.9 111.23,33.9 111.87,31.6 111.87,31.6 111.87,33.9 112.61,33.9 
	112.61,30.88 111.46,30.88 110.93,32.89 110.93,32.89 110.41,30.88 109.25,30.88 109.25,33.9 109.99,33.9 "/>
<path class="st2" d="M114.74,30.81c-0.95,0-1.49,0.7-1.49,1.57c0,0.82,0.47,1.49,1.32,1.57l0.17,0.01c0.95,0,1.49-0.7,1.49-1.58
	c0-0.44-0.14-0.83-0.39-1.11C115.59,30.99,115.21,30.81,114.74,30.81 M115.28,33c-0.11,0.17-0.29,0.28-0.54,0.28
	c-0.51,0-0.7-0.45-0.7-0.9c0-0.39,0.15-0.78,0.53-0.88l0.18-0.02c0.51,0,0.7,0.45,0.7,0.9C115.44,32.61,115.39,32.83,115.28,33"/>
<path class="st2" d="M116.86,30.88v3.02h0.79v-1.1h0.6c0.37,0,0.42,0.31,0.44,0.62c0.01,0.08,0.02,0.38,0.09,0.48h0.78
	c-0.11-0.11-0.12-0.55-0.13-0.68c-0.03-0.29-0.12-0.65-0.44-0.72v-0.01c0.32-0.12,0.47-0.43,0.47-0.76c0-0.61-0.52-0.85-1.06-0.85
	H116.86z M117.64,31.51h0.63c0.22,0,0.4,0.1,0.4,0.33c0,0.23-0.13,0.36-0.36,0.36h-0.66V31.51z"/>
<polygon class="st2" points="122.59,33.22 120.93,33.22 120.93,32.64 122.41,32.64 122.41,32.03 120.93,32.03 120.93,31.51 
	122.55,31.51 122.55,30.87 120.14,30.87 120.14,33.9 122.59,33.9 "/>
<path class="st2" d="M17.87,1.96c-9.24,0-16.74,7.49-16.74,16.74c0,4.62,1.87,8.81,4.9,11.84c3.03,3.03,7.21,4.9,11.84,4.9
	c9.24,0,16.74-7.49,16.74-16.74c0-8.96-7.03-16.27-15.88-16.72L17.87,1.96z M17.87,34.63c-8.8,0-15.94-7.14-15.94-15.94
	c0-4.4,1.78-8.39,4.67-11.27c2.88-2.89,6.87-4.67,11.27-4.67c8.8,0,15.94,7.14,15.94,15.94c0,8.53-6.7,15.49-15.12,15.92
	L17.87,34.63z"/>
<path class="st0" d="M17.87,3.4c-8.44,0-15.3,6.86-15.3,15.3c0,4.08,1.59,7.93,4.48,10.82s6.73,4.48,10.82,4.48
	c8.43,0,15.3-6.86,15.3-15.3l-0.02-0.82C32.74,9.77,26.03,3.4,17.87,3.4z"/>
<path class="st0" d="M17.87,36.59c-2.42,0-4.76-0.47-6.97-1.41c-2.13-0.9-4.05-2.19-5.69-3.83c-1.64-1.64-2.93-3.56-3.83-5.69
	c-0.7-1.65-1.14-3.39-1.32-5.17L0,19.65l0-1.98l0.06-0.77c0.18-1.78,0.62-3.54,1.32-5.19c0.9-2.13,2.19-4.04,3.83-5.69
	C6.86,4.39,8.77,3.1,10.9,2.2c2.2-0.93,4.55-1.41,6.97-1.41c1.21,0,2.4,0.12,3.56,0.35c1.16,0.23,2.31,0.59,3.41,1.05
	c2.13,0.9,4.05,2.19,5.69,3.83l0.59,0.62c1.37,1.5,2.46,3.21,3.25,5.07c0.93,2.21,1.41,4.55,1.41,6.97s-0.47,4.76-1.41,6.97
	c-0.9,2.13-2.19,4.04-3.83,5.69c-1.64,1.64-3.55,2.93-5.69,3.83C22.63,36.12,20.29,36.59,17.87,36.59z M17.87,2.68
	c-8.83,0-16.02,7.19-16.02,16.02c0,4.28,1.67,8.3,4.69,11.33s7.05,4.69,11.33,4.69c8.83,0,16.02-7.18,16.02-16.02l-0.02-0.84
	C33.44,9.33,26.41,2.68,17.87,2.68z"/>
<path class="st0" d="M17.87,35.43c-4.62,0-8.8-1.87-11.84-4.9c-3.03-3.03-4.9-7.21-4.9-11.84c0-9.24,7.49-16.74,16.74-16.74
	c8.95,0,16.27,7.03,16.71,15.88l0.02,0.86C34.61,27.94,27.12,35.43,17.87,35.43 M0.72,19.66l0.06,0.77
	c0.17,1.71,0.59,3.37,1.26,4.96c0.87,2.04,2.1,3.88,3.68,5.46c1.58,1.58,3.41,2.82,5.46,3.68c2.12,0.9,4.37,1.35,6.69,1.35
	s4.57-0.45,6.69-1.35c2.05-0.86,3.88-2.1,5.46-3.68c1.58-1.58,2.82-3.42,3.68-5.46c0.9-2.12,1.35-4.37,1.35-6.69
	c0-2.32-0.45-4.57-1.35-6.69c-0.76-1.79-1.8-3.42-3.11-4.86l-0.58-0.6c-1.58-1.58-3.42-2.82-5.46-3.68
	c-1.06-0.45-2.15-0.79-3.27-1.01c-1.12-0.23-2.26-0.34-3.42-0.34c-2.32,0-4.57,0.45-6.69,1.35C9.14,3.73,7.3,4.97,5.72,6.55
	c-1.58,1.58-2.82,3.42-3.68,5.46c-0.67,1.59-1.1,3.25-1.26,4.96l-0.06,0.77V19.66z"/>
<path class="st1" d="M17.87,35.43c-4.62,0-8.8-1.87-11.84-4.9c-3.03-3.03-4.9-7.21-4.9-11.84c0-9.24,7.49-16.74,16.74-16.74
	c8.95,0,16.27,7.03,16.71,15.88l0.02,0.86C34.61,27.94,27.12,35.43,17.87,35.43 M0.72,19.66l0.06,0.77
	c0.17,1.71,0.59,3.37,1.26,4.96c0.87,2.04,2.1,3.88,3.68,5.46c1.58,1.58,3.41,2.82,5.46,3.68c2.12,0.9,4.37,1.35,6.69,1.35
	s4.57-0.45,6.69-1.35c2.05-0.86,3.88-2.1,5.46-3.68c1.58-1.58,2.82-3.42,3.68-5.46c0.9-2.12,1.35-4.37,1.35-6.69
	c0-2.32-0.45-4.57-1.35-6.69c-0.76-1.79-1.8-3.42-3.11-4.86l-0.58-0.6c-1.58-1.58-3.42-2.82-5.46-3.68
	c-1.06-0.45-2.15-0.79-3.27-1.01c-1.12-0.23-2.26-0.34-3.42-0.34c-2.32,0-4.57,0.45-6.69,1.35C9.14,3.73,7.3,4.97,5.72,6.55
	c-1.58,1.58-2.82,3.42-3.68,5.46c-0.67,1.59-1.1,3.25-1.26,4.96l-0.06,0.77V19.66z"/>
<polygon class="st1" points="16.34,10.05 9.46,17.38 16.34,17.38 "/>
<path class="st1" d="M1.93,18.69c0,4.4,1.79,8.39,4.67,11.27c2.88,2.88,6.87,4.67,11.27,4.67c8.8,0,15.94-7.14,15.94-15.94
	c0-8.53-6.7-15.49-15.12-15.92l-0.82-0.02C9.07,2.75,1.93,9.89,1.93,18.69 M24.93,20.77v1.8H21.1v3.44h6.45v1.8H19.3V15.59h8.29
	l1.69,1.8H21.1v3.38H24.93z M9.46,19.18v8.62h-1.8v-8.62H5.32L18.14,5.5v22.3h-1.8v-8.62H9.46z M26.41,14.33h-2.46L19.3,9.37V6.74
	L26.41,14.33z"/>
<path class="st2" d="M18.14,27.8V5.5L5.32,19.18h2.34v8.62h1.8v-8.62h6.89v8.62H18.14z M9.46,17.38l6.88-7.34v7.34H9.46z"/>
<polygon class="st2" points="29.29,17.38 27.59,15.59 19.3,15.59 19.3,27.8 27.55,27.8 27.55,26.01 21.1,26.01 21.1,22.56 
	24.93,22.56 24.93,20.77 21.1,20.77 21.1,17.38 "/>
<polygon class="st2" points="23.95,14.33 26.41,14.33 19.3,6.74 19.3,9.37 "/>
</svg>
