<?xml version="1.0" encoding="UTF-8" standalone="no"?> <svg xmlns:inkscape="http://www.inkscape.org/namespaces/inkscape" xmlns:sodipodi="http://sodipodi.sourceforge.net/DTD/sodipodi-0.dtd" xmlns="http://www.w3.org/2000/svg" xmlns:svg="http://www.w3.org/2000/svg" version="1.1" id="svg1" width="288" height="80.080002" viewBox="0 0 288 80.080002"><defs id="defs1"></defs><g id="g1"><g id="group-R5"><path id="path2" d="M 42.7109,600.574 V 303.957 H 0 v 296.617 h 42.7109" style="fill:#ffffff;fill-opacity:1;fill-rule:nonzero;stroke:none" transform="matrix(0.13333333,0,0,-0.13333333,0,80.08)"></path><path id="path3" d="M 199.195,600.574 375.586,375.145 h 0.781 v 225.429 h 42.731 V 303.957 H 376.367 L 199.98,529.383 h -0.785 V 303.957 h -42.707 v 296.617 h 42.707" style="fill:#ffffff;fill-opacity:1;fill-rule:nonzero;stroke:none" transform="matrix(0.13333333,0,0,-0.13333333,0,80.08)"></path><path id="path4" d="M 558.102,303.957 H 515.391 V 600.574 H 758.227 V 557.867 H 558.102 V 479.941 H 679.52 V 437.23 H 558.102 V 303.957" style="fill:#ffffff;fill-opacity:1;fill-rule:nonzero;stroke:none" transform="matrix(0.13333333,0,0,-0.13333333,0,80.08)"></path><path id="path5" d="M 893.695,600.574 V 303.957 h -42.711 v 296.617 h 42.711" style="fill:#ffffff;fill-opacity:1;fill-rule:nonzero;stroke:none" transform="matrix(0.13333333,0,0,-0.13333333,0,80.08)"></path><path id="path6" d="m 1040.39,600.574 176.38,-225.429 h 0.8 v 225.429 h 42.71 V 303.957 h -42.71 L 1041.2,529.383 h -0.81 V 303.957 h -42.683 v 296.617 h 42.683" style="fill:#ffffff;fill-opacity:1;fill-rule:nonzero;stroke:none" transform="matrix(0.13333333,0,0,-0.13333333,0,80.08)"></path><path id="path7" d="M 1416.89,600.574 V 303.957 h -42.7 v 296.617 h 42.7" style="fill:#ffffff;fill-opacity:1;fill-rule:nonzero;stroke:none" transform="matrix(0.13333333,0,0,-0.13333333,0,80.08)"></path><path id="path8" d="m 1747.92,600.574 v -42.707 h -104.01 v -253.91 h -42.71 v 253.91 h -104.01 v 42.707 h 250.73" style="fill:#ffffff;fill-opacity:1;fill-rule:nonzero;stroke:none" transform="matrix(0.13333333,0,0,-0.13333333,0,80.08)"></path><path id="path9" d="m 1856.03,600.574 90.56,-126.562 89.76,126.562 h 54.19 L 1967.15,431.703 V 303.957 h -42.71 v 127.746 l -119.82,168.871 h 51.41" style="fill:#ffffff;fill-opacity:1;fill-rule:nonzero;stroke:none" transform="matrix(0.13333333,0,0,-0.13333333,0,80.08)"></path><path id="path10" d="m 2140.78,581.211 c 4.33,0 6.07,1.812 6.07,4.414 0,2.914 -1.66,4.016 -4.73,4.016 h -4.25 v -8.43 z m 8.04,-8.348 c 0.31,-0.554 0.94,-1.5 1.42,-2.129 h -1.82 c -0.47,0.551 -0.86,1.258 -1.26,1.891 l -2.99,4.883 c -1.02,1.734 -1.81,2.207 -3.7,2.207 h -2.6 v -8.981 h -1.74 v 20.481 h 6.15 c 3.78,0 6.22,-1.731 6.22,-5.434 0,-2.836 -1.89,-5.043 -5.28,-5.437 l -0.07,-0.078 c 1.1,-0.313 1.73,-0.868 2.83,-2.676 z m 9.38,8.028 c 0,9.414 -7.19,16.687 -16.6,16.687 -9.41,0 -16.6,-7.273 -16.6,-16.687 0,-9.414 7.19,-16.688 16.6,-16.688 9.41,0 16.6,7.274 16.6,16.688 z m 1.8,0 c 0,-10.442 -8.04,-18.403 -18.4,-18.403 -10.36,0 -18.4,7.961 -18.4,18.403 0,10.441 8.04,18.398 18.4,18.398 10.36,0 18.4,-7.957 18.4,-18.398" style="fill:#ffffff;fill-opacity:1;fill-rule:nonzero;stroke:none" transform="matrix(0.13333333,0,0,-0.13333333,0,80.08)"></path><path id="path11" d="M 758.227,84.2539 H 0 V 118.09 H 758.227 V 84.2539" style="fill:#ffffff;fill-opacity:1;fill-rule:nonzero;stroke:none" transform="matrix(0.13333333,0,0,-0.13333333,0,80.08)"></path><path id="path12" d="m 2042.01,61.1094 c 0.1,1.5664 -1.5,2.6758 -2.93,2.0469 l -91.76,-38.586 c -8.28,-3.1601 -17.58,-2.0664 -24.9,2.9219 l -55.92,38.1172 c -2.76,1.8828 -4.34,5.0781 -4.15,8.414 l -1.92,48.7656 c 0.09,1.539 -1.79,2.348 -2.85,1.231 l -8.36,-8.848 c -1,-1.055 -1.66,-2.375 -1.92,-3.805 l -4.55,-54.199 c -0.59,-3.3203 1.05,-6.6407 4.05,-8.1875 l 87.46,-45.33987 c 10.62,-5.47657 23.37,-4.73047 33.28,1.9414 l 67.72,43.75777 c 6.33,4.0977 6.44,7.0118 6.75,11.7696 v 0" style="fill:#ffffff;fill-opacity:1;fill-rule:nonzero;stroke:none" transform="matrix(0.13333333,0,0,-0.13333333,0,80.08)"></path><path id="path13" d="m 2018.21,150.754 11,-74.3985 c 0.36,-2.1836 2.52,-3.5821 4.66,-3.0117 l 4.24,1.1328 c 1.7,0.4531 2.91,1.9648 2.96,3.7226 l 3.9,73.4058 c 0.17,5.176 -2.83,9.934 -7.58,12.012 l -47.33,20.723 c -4.13,1.691 -5.69,1.422 -8.53,0.703 l -8.14,-2.055 c -1.49,-0.379 -1.77,-2.379 -0.44,-3.152 l 41.87,-24.176 c 2.17,-1.242 3.04,-2.578 3.39,-4.906" style="fill:#ffffff;fill-opacity:1;fill-rule:nonzero;stroke:none" transform="matrix(0.13333333,0,0,-0.13333333,0,80.08)"></path><path id="path14" d="m 1991.01,138.461 -3.99,18.762 c -0.48,2.222 -0.95,3.351 -3.25,4.703 l -25.02,14.781 c -1.68,0.93 -2.64,0.809 -4.59,0.094 l -47.26,-17.996 c -1.36,-0.532 -1.99,-1.27 -2.16,-2.867 l -3.12,-34.887 c -0.17,-1.828 2.09,-2.567 3.14,-1.067 l 22.69,33.59 c 0.38,0.567 0.98,0.942 1.66,1.031 l 33.91,4.461 c 0.9,0.079 1.33,-0.144 1.9,-0.621 l 23.01,-20.98 c 1.43,-1.281 3.41,-0.68 3.08,0.996" style="fill:#ffffff;fill-opacity:1;fill-rule:nonzero;stroke:none" transform="matrix(0.13333333,0,0,-0.13333333,0,80.08)"></path><path id="path15" d="m 1932.9,109.512 c 0.79,-0.664 1.88,-0.899 2.29,0.34 l 4.59,15.5 c 0.4,1.336 1.13,1.718 2.19,1.718 l 14.94,-0.004 c 1.34,0 1.83,-0.816 2.12,-1.492 l 3.39,-7.89 c 0.42,-0.973 1.76,-1.086 2.33,-0.192 l 7.21,11.215 c 1.74,2.695 1.59,4.727 -0.12,6.516 l -7.12,7.394 c -1.53,1.578 -2.59,2.66 -5.35,2.879 l -22.41,1.477 c -2.28,0.14 -3.6,-0.743 -4.75,-2.973 l -10.15,-20.668 c -0.94,-2.055 -0.39,-4.484 1.35,-5.926 l 9.49,-7.894" style="fill:#ffffff;fill-opacity:1;fill-rule:nonzero;stroke:none" transform="matrix(0.13333333,0,0,-0.13333333,0,80.08)"></path><path id="path16" d="m 1961.65,198.984 -18.16,2.954 c -3.24,0.558 -4.66,0.777 -7.62,-0.915 l -57.49,-32.39 c -7.28,-4.266 -8.92,-6.961 -8.69,-12.817 l 3.97,-68.9996 c -0.1,-2.0195 0.75,-3.9648 2.3,-5.2539 L 1917,47.4375 c 4.88,-4.0625 11.44,-5.4766 17.56,-3.793 l 60.48,16.7891 c 11.34,3.1523 18.76,14.0195 17.56,25.7266 l -5.34,52.1598 c -0.2,1.981 -2.93,2.34 -3.64,0.481 l -9.14,-24.028 -12.27,-32.2261 c -1.69,-4.4258 -5.69,-7.5508 -10.39,-8.1094 l -37.7,-4.3633 c -6.73,-0.7539 -8.28,0.125 -13.31,5.1953 l -30.27,31.3125 c -3.99,4.25 -4.02,6.652 -3.12,12.641 l 6.01,40.39 c 0.57,2.614 1.42,3.696 3.51,4.637 l 65.21,30.18 c 2.17,0.937 1.82,4.109 -0.5,4.554" style="fill:#ffffff;fill-opacity:1;fill-rule:nonzero;stroke:none" transform="matrix(0.13333333,0,0,-0.13333333,0,80.08)"></path><path id="path17" d="m 1981.75,119.09 -11.94,-30.633 c -0.89,-2.2734 -3.06,-3.7929 -5.49,-3.8554 l -35.41,-0.8907 c -2.41,-0.0586 -4.63,1.3282 -5.62,3.5235 l -9.85,21.6676 c -0.61,1.34 0.91,2.653 2.15,1.848 l 17.8,-11.5508 c 1.11,-0.7226 2.43,-1.0703 3.76,-0.9883 l 18,1.1055 c 1.4,0.0859 2.73,0.6563 3.75,1.6136 l 20.88,19.5 c 0.95,0.886 2.45,-0.129 1.97,-1.34" style="fill:#ffffff;fill-opacity:1;fill-rule:nonzero;stroke:none" transform="matrix(0.13333333,0,0,-0.13333333,0,80.08)"></path><path id="path18" d="m 1811.02,151.816 c 4.33,0 6.07,1.813 6.07,4.414 0,2.915 -1.66,4.016 -4.73,4.016 h -4.25 v -8.43 z m 8.04,-8.347 c 0.31,-0.555 0.94,-1.5 1.42,-2.129 h -1.82 c -0.47,0.551 -0.86,1.258 -1.25,1.89 l -3,4.883 c -1.02,1.735 -1.81,2.207 -3.7,2.207 h -2.6 v -8.98 h -1.73 v 20.48 h 6.14 c 3.78,0 6.22,-1.73 6.22,-5.433 0,-2.836 -1.89,-5.043 -5.28,-5.438 l -0.07,-0.078 c 1.1,-0.312 1.73,-0.867 2.83,-2.68 z m 9.38,8.027 c 0,9.414 -7.18,16.688 -16.6,16.688 -9.41,0 -16.6,-7.274 -16.6,-16.688 0,-9.414 7.19,-16.687 16.6,-16.687 9.42,0 16.6,7.273 16.6,16.687 z m 1.8,0 c 0,-10.441 -8.04,-18.402 -18.4,-18.402 -10.35,0 -18.4,7.961 -18.4,18.402 0,10.442 8.05,18.399 18.4,18.399 10.36,0 18.4,-7.957 18.4,-18.399 z M 1751,33.7227 1686.73,115.629 V 33.7227 h -28.52 V 168.621 h 26.69 l 61.86,-79.3983 v 79.3983 h 28.42 V 33.7227 Z M 1595.76,168.621 h 33.53 V 33.7227 h -33.53 z m -15.79,0 -49.72,-134.8983 h -40.47 l -49.72,134.8983 h 38.35 l 33.53,-105.2226 34.3,105.2226 z M 1443.4,33.7227 h -37.38 c -3.66,3.2734 -7.52,9.8281 -9.45,12.914 l -18.88,32.5664 c -3.47,6.1641 -6.36,7.3242 -10.99,7.3242 h -3.85 V 33.7227 h -32.47 V 168.621 h 54.05 c 35.27,0 42.98,-21.195 42.98,-37.965 0,-17.918 -11.95,-32.5662 -31.61,-36.613 v -0.3867 c 8.87,-2.1211 13.88,-5.2032 18.5,-12.9102 l 14.27,-24.4727 c 3.65,-6.1718 8.86,-14.0703 14.83,-22.5507 z m -47.79,94.6253 c 0,11.558 -5.59,17.922 -21.39,17.922 h -11.56 v -36.231 h 12.52 c 12.53,0 20.43,5.973 20.43,18.309 z m -82.28,-94.6253 h -36.23 l -10.17,29.8164 h -52.65 l -10.6,-29.8164 h -32.95 l 52.99,134.8983 h 39.32 z m -54.39,53.3281 -17.68,53.0512 -18.89,-53.0512 z M 1153.68,168.621 V 33.7227 h -29.67 v 89.4183 l -34.02,-89.4183 h -29.1 l -35.55,86.9143 V 33.7227 H 998.266 V 168.621 h 41.044 l 37.77,-96.5507 37.77,96.5507 h 38.83" style="fill:#ffffff;fill-opacity:1;fill-rule:nonzero;stroke:none" transform="matrix(0.13333333,0,0,-0.13333333,0,80.08)"></path><path id="path19" d="M 846.363,99.4492 H 828.969 V 73.5508 h 16.445 c 9.176,0 17.973,3.1562 17.973,12.9023 0,9.2774 -7.27,12.9961 -17.024,12.9961 z m -2.289,29.4418 h -15.105 v -23.223 h 16.344 c 7.839,0 15.003,3.531 15.003,11.852 0,8.312 -6.878,11.371 -16.242,11.371 z m 2.289,-61.5512 h -24.652 v 67.6682 h 24.754 c 10.226,0 21.121,-4.016 21.121,-16.727 0,-8.125 -5.445,-13.285 -12.43,-15.105 v -0.188 c 8.125,-0.957 15.582,-6.5896 15.582,-16.8239 0,-13.3789 -11.562,-18.8243 -24.375,-18.8243" style="fill:#ffffff;fill-opacity:1;fill-rule:nonzero;stroke:none" transform="matrix(0.13333333,0,0,-0.13333333,0,80.08)"></path><path id="path20" d="M 915.418,96.6797 V 67.3398 h -7.27 v 29.3399 l -24.746,38.3283 h 8.981 l 19.594,-32.211 19.785,32.211 h 8.414 L 915.418,96.6797" style="fill:#ffffff;fill-opacity:1;fill-rule:nonzero;stroke:none" transform="matrix(0.13333333,0,0,-0.13333333,0,80.08)"></path></g></g></svg> 